Coordinates
version=1
nRows=19
nColumns=33
inDegrees=yes

Units are S.I. units (second, meters, Newtons, ...)
Angles are in degrees.

endheader
time	ground_thorax_rot_x	ground_thorax_rot_y	ground_thorax_rot_z	ground_thorax_tx	ground_thorax_ty	ground_thorax_tz	clav_prot_r	clav_elev_r	scapula_abduction_r	scapula_elevation_r	scapula_upward_rot_r	scapula_winging_r	shoulder_elv_r	plane_of_elev_r	axial_rot_r	elbow_flexion_r	pro_sup_r	wrist_flex_r	wrist_dev_r	clav_prot_l	clav_elev_l	scapula_abduction_l	scapula_elevation_l	scapula_upward_rot_l	scapula_winging_l	shoulder_elv_l	plane_of_elev_l	axial_rot_l	elbow_flexion_l	pro_sup_l	wrist_flex_l	wrist_dev_l
      9.61000000	    -21.90550600	    -35.40340592	     52.53518750	     22.25810051	    763.17372367	    -32.76305075	     28.49705930	    -45.00000000	     38.68503742	    -45.00000000	    -45.00000000	  -2262.50945779	  -2267.28001201	    162.08775390	     46.83708927	   1080.97011335	    164.08698120	     10.77416728	     13.65342623	     -1.25840768	     29.82133029	    -25.30224698	    -45.00000000	    -45.00000000	  -3159.85070822	  -2085.37664323	     25.84589672	     47.30440357	    709.26751733	     38.91889689	     12.65767315	    -13.73741971
      9.62000000	    -22.21875689	    -35.24493194	     52.08029612	     20.25200508	    763.40594212	    -32.79568168	     28.46664360	    -45.00000000	     38.66037122	    -45.00000000	    -45.00000000	  -2262.51077263	  -2267.22137942	    162.08039123	     46.79761289	   1080.99923581	    164.21370478	     10.80481773	     13.66465345	     -1.20514799	     29.74279678	    -25.36433320	    -45.00000000	    -45.00000000	  -3159.80697879	  -2085.33256662	     25.88209455	     47.23405258	    709.28772215	     38.51417747	     12.56740580	    -13.76589038
      9.63000000	    -22.51447999	    -35.16263774	     51.66698887	     18.14044790	    763.68981790	    -32.84221310	     28.42377657	    -45.00000000	     38.64520351	    -45.00000000	    -45.00000000	  -2262.58917002	  -2267.11042261	    162.02990242	     46.82160594	   1080.94420283	    164.35878980	     10.89135690	     13.68722359	     -1.16052845	     29.85008686	    -25.46504084	    -45.00000000	    -45.00000000	  -3159.68735152	  -2085.26147569	     25.87279177	     47.26926902	    709.21717543	     38.23492861	     12.51792238	    -13.81174511
      9.64000000	    -22.76840075	    -35.00226730	     51.29602532	     15.93097751	    764.02453558	    -32.89854634	     28.36301266	    -45.00000000	     38.68271941	    -45.00000000	    -45.00000000	  -2262.65322406	  -2266.97267365	    162.07106673	     46.71887642	   1080.93522057	    164.51776305	     10.95756292	     13.71216017	     -1.11483594	     29.92305081	    -25.55828694	    -45.00000000	    -45.00000000	  -3159.67593703	  -2085.18991937	     25.84827484	     47.21283772	    709.19183419	     38.04400360	     12.46271243	    -13.86842548
      9.65000000	    -23.05956806	    -34.87082894	     50.88491891	     13.62438789	    764.40871976	    -32.96176740	     28.35784043	    -45.00000000	     38.68682554	    -45.00000000	    -45.00000000	  -2262.70895730	  -2266.84212539	    162.07846022	     46.72611078	   1080.91150931	    164.66766713	     11.03172397	     13.73607422	     -1.09067929	     29.98866335	    -25.68060627	    -45.00000000	    -45.00000000	  -3159.56267401	  -2085.13887103	     25.85195587	     47.22750364	    709.16430733	     37.92579211	     12.40109605	    -13.94396763
      9.66000000	    -23.35105119	    -34.76078583	     50.46879072	     11.21961409	    764.84089531	    -33.02952740	     28.31765825	    -45.00000000	     38.68094484	    -45.00000000	    -45.00000000	  -2262.78770551	  -2266.73751998	    162.06181601	     46.71246409	   1080.89416080	    164.80587699	     11.09401955	     13.77475879	     -1.07238181	     30.04567479	    -25.79223553	    -45.00000000	    -45.00000000	  -3159.43997565	  -2085.06358868	     25.84597513	     47.27092040	    709.15833211	     37.85144745	     12.35220156	    -14.03398496
      9.67000000	    -23.68759105	    -34.61186375	     49.97182456	      8.72061400	    765.31935102	    -33.10172045	     28.25359666	    -45.00000000	     38.66263150	    -45.00000000	    -45.00000000	  -2262.85323194	  -2266.64911995	    162.03689488	     46.61731143	   1080.86986347	    164.92858648	     11.15179615	     13.82485833	     -1.03284100	     30.06141682	    -25.92603074	    -45.00000000	    -45.00000000	  -3159.31000666	  -2085.01747415	     25.87128287	     47.29522256	    709.15964745	     37.81555503	     12.29412640	    -14.11503887
      9.68000000	    -23.99760944	    -34.48483664	     49.50920322	      6.12929730	    765.84374825	    -33.17916249	     28.22489398	    -45.00000000	     38.67065540	    -45.00000000	    -45.00000000	  -2262.92418753	  -2266.54476341	    162.01938148	     46.58607252	   1080.86934625	    165.04117132	     11.19392970	     13.87206065	     -1.01161872	     30.09947832	    -26.04522097	    -45.00000000	    -45.00000000	  -3159.17128109	  -2084.95241657	     25.88021688	     47.35363461	    709.17381518	     37.80242431	     12.25647988	    -14.20183908
      9.69000000	    -24.34549955	    -34.33909035	     48.99331922	      3.45038474	    766.41465736	    -33.26370483	     28.14846324	    -45.00000000	     38.65445176	    -45.00000000	    -45.00000000	  -2263.01401796	  -2266.47075127	    161.96646959	     46.53844118	   1080.87353110	    165.14352172	     11.22849837	     13.93523652	     -0.97589292	     30.15750450	    -26.15460998	    -45.00000000	    -45.00000000	  -3159.03262426	  -2084.89563254	     25.91492764	     47.39812425	    709.20531188	     37.81243205	     12.21657404	    -14.28363785
      9.70000000	    -24.66484236	    -34.19578594	     48.50210973	      0.69062444	    767.03354309	    -33.35659211	     28.13126003	    -45.00000000	     38.65922143	    -45.00000000	    -45.00000000	  -2263.10044272	  -2266.35815711	    161.94563543	     46.47152473	   1080.84577370	    165.21840450	     11.26160807	     13.99323884	     -0.95983709	     30.18856824	    -26.27937769	    -45.00000000	    -45.00000000	  -3158.89124842	  -2084.82715525	     25.93187471	     47.45513151	    709.21149200	     37.84579399	     12.20619946	    -14.35610419
      9.71000000	    -25.02296853	    -34.05309458	     47.97627533	     -2.14090456	    767.70204317	    -33.45914566	     28.06415000	    -45.00000000	     38.64858437	    -45.00000000	    -45.00000000	  -2263.18523436	  -2266.28494913	    161.89927203	     46.43022813	   1080.86700678	    165.28348579	     11.28020628	     14.04906904	     -0.92233777	     30.23635150	    -26.40485119	    -45.00000000	    -45.00000000	  -3158.73202844	  -2084.77196991	     25.94824159	     47.51718692	    709.25429805	     37.90171389	     12.18311012	    -14.42227272
      9.72000000	    -25.32307143	    -33.88945868	     47.50927066	     -5.03703652	    768.42330108	    -33.57218918	     28.06723305	    -45.00000000	     38.65608615	    -45.00000000	    -45.00000000	  -2263.26896455	  -2266.12625166	    161.92721968	     46.28060628	   1080.78593827	    165.32205023	     11.30751334	     14.11015122	     -0.90886600	     30.26889932	    -26.52736736	    -45.00000000	    -45.00000000	  -3158.58995133	  -2084.70989494	     25.97028601	     47.52324508	    709.24298764	     37.99066801	     12.22486396	    -14.49434001
      9.73000000	    -25.66090214	    -33.73590649	     47.01611462	     -7.97725510	    769.19463599	    -33.69786485	     28.05046420	    -45.00000000	     38.65567970	    -45.00000000	    -45.00000000	  -2263.42241917	  -2266.04218378	    161.87154047	     46.24010756	   1080.76723775	    165.37553743	     11.32429887	     14.17803080	     -0.90714974	     30.33801739	    -26.67278862	    -45.00000000	    -45.00000000	  -3158.39104824	  -2084.65421728	     25.99876633	     47.60729911	    709.24527348	     38.10018652	     12.25199921	    -14.55564665
      9.74000000	    -26.00914325	    -33.59832535	     46.48196947	    -10.95997313	    770.02142528	    -33.83549966	     28.00566101	    -45.00000000	     38.64210339	    -45.00000000	    -45.00000000	  -2263.47697553	  -2265.96155242	    161.82461842	     46.12741071	   1080.79885381	    165.41851265	     11.32967880	     14.22270283	     -0.87432944	     30.41164480	    -26.76394493	    -45.00000000	    -45.00000000	  -3158.22271472	  -2084.57281851	     26.00430133	     47.61820771	    709.32420131	     38.22324436	     12.24032223	    -14.60526540
      9.75000000	    -26.28283844	    -33.47244809	     46.06970987	    -13.98386246	    770.90820080	    -33.98409076	     28.00385427	    -45.00000000	     38.69079465	    -45.00000000	    -45.00000000	  -2263.65513140	  -2265.81677141	    161.79916041	     46.06444355	   1080.72746057	    165.50297540	     11.35273869	     14.29250880	     -0.90213121	     30.51590386	    -26.85410286	    -45.00000000	    -45.00000000	  -3158.04965078	  -2084.48339574	     26.00604540	     47.64204342	    709.32435682	     38.37424644	     12.30927130	    -14.68019211
      9.76000000	    -26.71572823	    -33.24010055	     45.43324671	    -17.05541311	    771.86356126	    -34.14013554	     27.91932506	    -45.00000000	     38.66323184	    -45.00000000	    -45.00000000	  -2263.74046925	  -2265.78881920	    161.68601520	     45.88596884	   1080.84589654	    165.57884240	     11.33894295	     14.34801216	     -0.86036576	     30.48725940	    -27.04652480	    -45.00000000	    -45.00000000	  -3157.79959949	  -2084.46868141	     26.09382683	     47.60970923	    709.44928635	     38.52091887	     12.29220820	    -14.73875840
      9.77000000	    -26.96430538	    -33.12824708	     45.06094494	    -20.17372035	    772.89085914	    -34.30311481	     27.90052369	    -45.00000000	     38.68613550	    -45.00000000	    -45.00000000	  -2263.89292318	  -2265.62368983	    161.68399580	     45.82380904	   1080.77085004	    165.70042993	     11.39328493	     14.38708653	     -0.86445048	     30.63357508	    -27.11471319	    -45.00000000	    -45.00000000	  -3157.65097093	  -2084.38485264	     26.07047897	     47.62383866	    709.43052991	     38.68520866	     12.35628031	    -14.80054598
      9.78000000	    -27.29820786	    -32.95458327	     44.52229014	    -23.33859102	    773.99582417	    -34.47050564	     27.95222670	    -45.00000000	     38.69053918	    -45.00000000	    -45.00000000	  -2264.00321899	  -2265.51555712	    161.65831210	     45.54279288	   1080.63491922	    165.76602863	     11.43098764	     14.46744308	     -0.88319042	     30.65557757	    -27.27690598	    -45.00000000	    -45.00000000	  -3157.44431553	  -2084.33401211	     26.08192283	     47.55507926	    709.37652883	     38.86326609	     12.44052309	    -14.87120508
      9.79000000	    -27.62914002	    -32.78305932	     44.01784518	    -26.53934872	    775.17845940	    -34.64251601	     27.94408563	    -45.00000000	     38.71644330	    -45.00000000	    -45.00000000	  -2264.07434036	  -2265.39239209	    161.64814956	     45.35665817	   1080.62120635	    165.84672635	     11.44334112	     14.53078200	     -0.86100127	     30.78188997	    -27.35202424	    -45.00000000	    -45.00000000	  -3157.30678689	  -2084.25580114	     26.09065847	     47.51392186	    709.44533423	     39.03085834	     12.48106004	    -14.96322626
